HIERARCHY
ROOT Hips
{
 OFFSET 0.000000 0.000000 0.000000
 CHANNELS 6 Xposition Yposition Zposition Yrotation Xrotation Zrotation
 JOINT Chest
 {
  OFFSET 0.000000 9.581000 -0.001100
  CHANNELS 3 Yrotation Xrotation Zrotation
  JOINT Chest2
  {
   OFFSET 0.000000 9.561100 0.002200
   CHANNELS 3 Yrotation Xrotation Zrotation
   JOINT Chest3
   {
    OFFSET 0.000000 9.521100 0.000000
    CHANNELS 3 Yrotation Xrotation Zrotation
    JOINT Chest4
    {
     OFFSET 0.000000 9.511400 0.000000
     CHANNELS 3 Yrotation Xrotation Zrotation
     JOINT Neck
     {
      OFFSET 0.000000 14.375100 0.000000
      CHANNELS 3 Yrotation Xrotation Zrotation
      JOINT Head
      {
       OFFSET 0.000000 8.901200 0.004600
       CHANNELS 3 Yrotation Xrotation Zrotation
       End Site
       {
        OFFSET 0.000000 16.962200 0.002400
       }
      }
     }
     JOINT RightCollar
     {
      OFFSET -2.920100 9.518800 0.000000
      CHANNELS 3 Yrotation Xrotation Zrotation
      JOINT RightShoulder
      {
       OFFSET -13.664500 0.000000 0.000000
       CHANNELS 3 Yrotation Xrotation Zrotation
       JOINT RightElbow
       {
        OFFSET 0.000000 -29.999200 0.000000
        CHANNELS 3 Yrotation Xrotation Zrotation
        JOINT RightWrist
        {
         OFFSET 0.000000 -24.253600 0.000000
         CHANNELS 3 Yrotation Xrotation Zrotation
         End Site
         {
          OFFSET 0.000000 -17.918900 0.000000
         }
        }
       }
      }
     }
     JOINT LeftCollar
     {
      OFFSET 2.920100 9.518800 0.000000
      CHANNELS 3 Yrotation Xrotation Zrotation
      JOINT LeftShoulder
      {
       OFFSET 13.664500 0.000000 0.000000
       CHANNELS 3 Yrotation Xrotation Zrotation
       JOINT LeftElbow
       {
        OFFSET 0.000000 -29.999200 0.000000
        CHANNELS 3 Yrotation Xrotation Zrotation
        JOINT LeftWrist
        {
         OFFSET 0.000000 -24.253600 0.000000
         CHANNELS 3 Yrotation Xrotation Zrotation
         End Site
         {
          OFFSET 0.000000 -17.918900 0.000000
         }
        }
       }
      }
     }
    }
   }
  }
 }
 JOINT RightHip
 {
  OFFSET -7.797300 0.005300 0.000500
  CHANNELS 3 Yrotation Xrotation Zrotation
  JOINT RightKnee
  {
   OFFSET 0.000000 -40.663400 -0.000500
   CHANNELS 3 Yrotation Xrotation Zrotation
   JOINT RightAnkle
   {
    OFFSET 0.000000 -39.523700 -0.000900
    CHANNELS 3 Yrotation Xrotation Zrotation
    JOINT RightToe
    {
     OFFSET 0.000000 -6.418000 14.485300
     CHANNELS 3 Yrotation Xrotation Zrotation
     End Site
     {
      OFFSET 0.000000 -1.465200 6.326400
     }
    }
   }
  }
 }
 JOINT LeftHip
 {
  OFFSET 7.797300 0.005300 0.000500
  CHANNELS 3 Yrotation Xrotation Zrotation
  JOINT LeftKnee
  {
   OFFSET 0.000000 -40.663400 -0.000500
   CHANNELS 3 Yrotation Xrotation Zrotation
   JOINT LeftAnkle
   {
    OFFSET 0.000000 -39.523700 -0.000900
    CHANNELS 3 Yrotation Xrotation Zrotation
    JOINT LeftToe
    {
     OFFSET 0.000000 -6.418000 14.485300
     CHANNELS 3 Yrotation Xrotation Zrotation
     End Site
     {
      OFFSET 0.000000 -1.465200 6.326400
     }
    }
   }
  }
 }
}
MOTION
Frames: 8
Frame Time: 0.008333
-21.832315 126.279078 72.367967 -176.262356 -24.994709 -0.276877 -1.929229 20.255862 -0.230051 -0.243443 2.547803 0.011189 -0.377744 4.193735 0.006661 -1.663278 17.378800 -0.138135 1.624471 15.593556 -0.883584 1.897993 -9.354314 -1.290965 -3.169007 -5.095576 0.460317 -9.866806 -14.049984 2.576262 -112.292608 -64.090479 122.930696 -21.493309 -8.329118 -7.075696 -4.797379 -3.391342 0.919231 13.324258 -12.448709 1.344620 83.279219 -55.167056 -100.927004 23.009425 -32.050086 10.098046 -6.247069 -62.879509 7.538848 -42.676817 70.871216 -42.758872 19.996631 36.836644 10.403294 0.013748 -0.007441 0.006090 -8.189759 -51.677826 -7.558992 37.693752 76.574396 27.605502 1.760512 -1.979188 7.416409 0.000089 0.009049 0.000040
-21.833109 126.280039 72.368252 -176.256378 -24.995730 -0.286310 -1.942036 20.250516 -0.224480 -0.236916 2.552195 0.010184 -0.388374 4.183785 0.011130 -1.678582 17.370517 -0.128851 1.643181 15.606748 -0.894518 1.920321 -9.339790 -1.306875 -3.121119 -5.147149 0.440484 -9.851940 -14.022580 2.554921 -113.727640 -64.963266 124.326575 -21.386926 -8.451012 -7.162646 -4.773785 -3.381305 0.898111 13.345523 -12.496519 1.355654 83.259646 -55.120545 -100.922024 23.038456 -32.108609 10.159043 -6.293131 -62.861153 7.593340 -42.658547 70.858194 -42.750340 19.982959 36.825439 10.370833 0.018936 -0.000015 0.008390 -8.165445 -51.669172 -7.566455 37.770119 76.551246 27.658817 1.733925 -1.967961 7.455996 -0.006666 0.004982 -0.002954
-21.832483 126.280896 72.368572 -176.255128 -24.996417 -0.303020 -1.953953 20.238500 -0.210595 -0.238626 2.550108 0.011619 -0.405501 4.173414 0.016381 -1.662525 17.386436 -0.134596 1.653226 15.614124 -0.895300 1.942865 -9.325139 -1.323157 -3.104454 -5.147907 0.428660 -9.821949 -14.049843 2.543496 -114.893809 -65.604326 125.485722 -21.353768 -8.534759 -7.167849 -4.766447 -3.400830 0.910372 13.377367 -12.507145 1.346842 83.320513 -54.981909 -101.060445 22.985261 -32.093081 10.272518 -6.337665 -62.841446 7.660255 -42.568306 70.862731 -42.656607 19.842105 36.818590 10.265537 0.012334 -0.000486 0.005465 -8.161943 -51.666047 -7.549299 37.720738 76.552146 27.600080 1.741920 -1.956712 7.471520 -0.003957 0.001350 -0.001753
-21.829786 126.281781 72.368553 -176.245893 -24.998989 -0.335751 -1.967894 20.235038 -0.186436 -0.249716 2.542331 0.013376 -0.384108 4.185927 0.015147 -1.671515 17.382744 -0.128647 1.664849 15.621921 -0.896195 1.962295 -9.312825 -1.335758 -3.078950 -5.171196 0.420585 -9.805438 -14.056856 2.522614 -115.696050 -66.001602 126.322369 -21.368927 -8.598911 -7.131755 -4.761084 -3.419927 0.920179 13.407354 -12.511055 1.337470 83.347098 -54.792806 -101.191311 22.938213 -32.055197 10.342477 -6.394801 -62.815872 7.739323 -42.517446 70.858108 -42.596876 19.730644 36.797122 10.153308 0.002346 -0.000961 0.001039 -8.194414 -51.668065 -7.489555 37.621163 76.572732 27.477866 1.749662 -1.942958 7.496484 -0.001013 -0.006565 -0.000449
-21.829190 126.282647 72.368285 -176.236401 -25.004284 -0.355618 -1.982495 20.229977 -0.174687 -0.242244 2.550261 0.014490 -0.394638 4.179991 0.017220 -1.686380 17.379261 -0.115133 1.689303 15.639262 -0.912297 1.968248 -9.310071 -1.345194 -3.020204 -5.211975 0.393599 -9.808579 -14.033325 2.496608 -116.152100 -66.174315 126.849442 -21.403394 -8.653265 -7.099112 -4.741641 -3.439288 0.914224 13.425415 -12.488425 1.326051 83.339267 -54.603474 -101.285909 22.956683 -32.011594 10.333846 -6.403664 -62.790768 7.766507 -42.462487 70.863176 -42.525608 19.655400 36.762563 10.049975 0.000438 0.000667 0.000194 -8.217748 -51.665301 -7.458116 37.569498 76.583434 27.415717 1.748540 -1.936925 7.507046 0.004384 -0.008828 0.001942
-21.829348 126.283426 72.367738 -176.225186 -25.011197 -0.370779 -1.986688 20.234708 -0.160785 -0.245824 2.550898 0.012794 -0.398662 4.179308 0.023320 -1.689027 17.380223 -0.116909 1.700446 15.646888 -0.909953 1.970304 -9.309174 -1.352760 -3.005757 -5.226121 0.384148 -9.805793 -14.048069 2.446880 -116.268898 -66.151679 127.069884 -21.437528 -8.699036 -7.086839 -4.755325 -3.513664 0.949596 13.471837 -12.452665 1.310913 83.221675 -54.378680 -101.294849 23.004116 -31.957221 10.286312 -6.377591 -62.769832 7.754802 -42.413559 70.882040 -42.452014 19.607308 36.711022 9.948828 0.002559 0.001497 0.001134 -8.230468 -51.659370 -7.441074 37.507853 76.593734 27.347489 1.750231 -1.933978 7.517508 0.009509 -0.009424 0.004213
-21.831991 126.283775 72.367644 -176.213943 -25.014651 -0.369712 -1.993763 20.235457 -0.160591 -0.250348 2.552847 0.011094 -0.396691 4.179293 0.027438 -1.698624 17.385148 -0.100108 1.706359 15.647227 -0.925696 1.994468 -9.295092 -1.354513 -2.990545 -5.248771 0.356911 -9.820978 -14.038104 2.420383 -116.252964 -66.039925 127.192888 -21.461835 -8.734256 -7.088036 -4.761689 -3.564628 0.947268 13.502943 -12.454705 1.311683 83.073421 -54.151763 -101.280637 23.072286 -31.905702 10.220805 -6.321141 -62.760353 7.702909 -42.365751 70.917905 -42.382232 19.540770 36.642304 9.850872 0.002561 0.000436 0.001135 -8.216622 -51.653831 -7.453771 37.284607 76.607354 27.107518 1.789268 -1.919707 7.552565 0.003901 -0.010688 0.001728
-21.834103 126.283690 72.367836 -176.214439 -25.013507 -0.365666 -1.990957 20.231907 -0.157660 -0.246245 2.550915 0.018546 -0.403463 4.181459 0.024622 -1.708306 17.385369 -0.096372 1.713200 15.650013 -0.929536 2.002600 -9.291897 -1.360104 -2.952905 -5.306346 0.317420 -9.862328 -13.978617 2.408779 -116.173890 -65.891845 127.251360 -21.473592 -8.757216 -7.090376 -4.768325 -3.612106 0.952903 13.517290 -12.454406 1.325318 82.930383 -53.939911 -101.254086 23.139910 -31.861587 10.158861 -6.219390 -62.757075 7.617342 -42.367289 70.933620 -42.343035 19.498391 36.575806 9.767845 -0.000474 -0.006268 -0.000210 -8.189293 -51.649815 -7.473012 37.158034 76.611419 26.983427 1.799381 -1.912953 7.567497 0.004028 -0.008336 0.001784
